<svg xmlns="http://www.w3.org/2000/svg" width="53" height="43" viewBox="0 0 53 43"><g data-name="Quote 2"><g data-name="Group 573"><g data-name="Group 572"><path data-name="Path 1178" d="M32.34 43H53V23.649h-9.422a.819.819 0 0 1-.821-.818v-1.98c0-7.392 2.844-11.219 8.455-11.378V.001c-7.15.074-12.647 2.29-16.338 6.592-3.772 4.391-5.684 10.278-5.684 17.5A61.216 61.216 0 0 0 32.34 43ZM3.307 43h20.666V23.649h-9.584a.819.819 0 0 1-.821-.818v-1.98c0-7.4 2.9-11.222 8.617-11.378V.001C15.032.074 9.51 2.292 5.762 6.595 1.939 10.987.001 16.874.001 24.095A57.7 57.7 0 0 0 3.307 43Z" fill="#eefb13"/></g></g></g></svg>